<svg id="SvgjsSvg1006" width="1691" height="677.5" xmlns="http://www.w3.org/2000/svg" version="1.1" xmlns:xlink="http://www.w3.org/1999/xlink" xmlns:svgjs="http://svgjs.com/svgjs"><defs id="SvgjsDefs1007"><marker id="SvgjsMarker1022" markerWidth="16" markerHeight="12" refX="16" refY="6" viewBox="0 0 16 12" orient="auto" markerUnits="userSpaceOnUse" stroke-dasharray="0,0"><path id="SvgjsPath1023" d="M0,2 L14,6 L0,11 L0,2" fill="#323232" stroke="#323232" stroke-width="2"></path></marker><marker id="SvgjsMarker1042" markerWidth="16" markerHeight="12" refX="16" refY="6" viewBox="0 0 16 12" orient="auto" markerUnits="userSpaceOnUse" stroke-dasharray="0,0"><path id="SvgjsPath1043" d="M0,2 L14,6 L0,11 L0,2" fill="#323232" stroke="#323232" stroke-width="2"></path></marker><marker id="SvgjsMarker1046" markerWidth="16" markerHeight="12" refX="16" refY="6" viewBox="0 0 16 12" orient="auto" markerUnits="userSpaceOnUse" stroke-dasharray="0,0"><path id="SvgjsPath1047" d="M0,2 L14,6 L0,11 L0,2" fill="#323232" stroke="#323232" stroke-width="2"></path></marker><marker id="SvgjsMarker1056" markerWidth="16" markerHeight="12" refX="16" refY="6" viewBox="0 0 16 12" orient="auto" markerUnits="userSpaceOnUse" stroke-dasharray="0,0"><path id="SvgjsPath1057" d="M0,2 L14,6 L0,11 L0,2" fill="#323232" stroke="#323232" stroke-width="2"></path></marker><marker id="SvgjsMarker1074" markerWidth="16" markerHeight="12" refX="16" refY="6" viewBox="0 0 16 12" orient="auto" markerUnits="userSpaceOnUse" stroke-dasharray="0,0"><path id="SvgjsPath1075" d="M0,2 L14,6 L0,11 L0,2" fill="#323232" stroke="#323232" stroke-width="2"></path></marker><marker id="SvgjsMarker1084" markerWidth="16" markerHeight="12" refX="16" refY="6" viewBox="0 0 16 12" orient="auto" markerUnits="userSpaceOnUse" stroke-dasharray="0,0"><path id="SvgjsPath1085" d="M0,2 L14,6 L0,11 L0,2" fill="#323232" stroke="#323232" stroke-width="2"></path></marker><marker id="SvgjsMarker1104" markerWidth="16" markerHeight="12" refX="16" refY="6" viewBox="0 0 16 12" orient="auto" markerUnits="userSpaceOnUse" stroke-dasharray="0,0"><path id="SvgjsPath1105" d="M0,2 L14,6 L0,11 L0,2" fill="#323232" stroke="#323232" stroke-width="2"></path></marker><marker id="SvgjsMarker1138" markerWidth="16" markerHeight="12" refX="16" refY="6" viewBox="0 0 16 12" orient="auto" markerUnits="userSpaceOnUse" stroke-dasharray="0,0"><path id="SvgjsPath1139" d="M0,2 L14,6 L0,11 L0,2" fill="#323232" stroke="#323232" stroke-width="2"></path></marker><marker id="SvgjsMarker1142" markerWidth="16" markerHeight="12" refX="16" refY="6" viewBox="0 0 16 12" orient="auto" markerUnits="userSpaceOnUse" stroke-dasharray="0,0"><path id="SvgjsPath1143" d="M0,2 L14,6 L0,11 L0,2" fill="#323232" stroke="#323232" stroke-width="2"></path></marker><marker id="SvgjsMarker1152" markerWidth="16" markerHeight="12" refX="16" refY="6" viewBox="0 0 16 12" orient="auto" markerUnits="userSpaceOnUse" stroke-dasharray="0,0"><path id="SvgjsPath1153" d="M0,2 L14,6 L0,11 L0,2" fill="#323232" stroke="#323232" stroke-width="2"></path></marker><marker id="SvgjsMarker1156" markerWidth="16" markerHeight="12" refX="16" refY="6" viewBox="0 0 16 12" orient="auto" markerUnits="userSpaceOnUse" stroke-dasharray="0,0"><path id="SvgjsPath1157" d="M0,2 L14,6 L0,11 L0,2" fill="#323232" stroke="#323232" stroke-width="2"></path></marker><marker id="SvgjsMarker1172" markerWidth="16" markerHeight="12" refX="16" refY="6" viewBox="0 0 16 12" orient="auto" markerUnits="userSpaceOnUse" stroke-dasharray="0,0"><path id="SvgjsPath1173" d="M0,2 L14,6 L0,11 L0,2" fill="#323232" stroke="#323232" stroke-width="2"></path></marker><marker id="SvgjsMarker1186" markerWidth="16" markerHeight="12" refX="16" refY="6" viewBox="0 0 16 12" orient="auto" markerUnits="userSpaceOnUse" stroke-dasharray="0,0"><path id="SvgjsPath1187" d="M0,2 L14,6 L0,11 L0,2" fill="#323232" stroke="#323232" stroke-width="2"></path></marker><marker id="SvgjsMarker1190" markerWidth="16" markerHeight="12" refX="16" refY="6" viewBox="0 0 16 12" orient="auto" markerUnits="userSpaceOnUse" stroke-dasharray="0,0"><path id="SvgjsPath1191" d="M0,2 L14,6 L0,11 L0,2" fill="#323232" stroke="#323232" stroke-width="2"></path></marker><marker id="SvgjsMarker1204" markerWidth="16" markerHeight="12" refX="16" refY="6" viewBox="0 0 16 12" orient="auto" markerUnits="userSpaceOnUse" stroke-dasharray="0,0"><path id="SvgjsPath1205" d="M0,2 L14,6 L0,11 L0,2" fill="#323232" stroke="#323232" stroke-width="2"></path></marker></defs><g id="SvgjsG1008" transform="translate(25,83.5)"><path id="SvgjsPath1009" d="M 0 0L 99 0L 99 44L 0 44Z" stroke="rgba(50,50,50,1)" stroke-width="2" fill-opacity="1" fill="#ffffff"></path><g id="SvgjsG1010"><text id="SvgjsText1011" font-family="微软雅黑" text-anchor="middle" font-size="13px" width="79px" fill="#323232" font-weight="400" align="middle" anchor="middle" family="微软雅黑" size="13px" weight="400" font-style="" opacity="1" y="12.05" transform="rotate(0)"><tspan id="SvgjsTspan1012" dy="16" x="49.5"><tspan id="SvgjsTspan1013" style="text-decoration:;">data</tspan></tspan></text></g></g><g id="SvgjsG1014" transform="translate(230,83.5)"><path id="SvgjsPath1015" d="M 0 0L 134 0L 134 44L 0 44Z" stroke="rgba(50,50,50,1)" stroke-width="2" fill-opacity="1" fill="#ffffff"></path><g id="SvgjsG1016"><text id="SvgjsText1017" font-family="微软雅黑" text-anchor="middle" font-size="13px" width="114px" fill="#323232" font-weight="400" align="middle" anchor="middle" family="微软雅黑" size="13px" weight="400" font-style="" opacity="1" y="12.05" transform="rotate(0)"><tspan id="SvgjsTspan1018" dy="16" x="67"><tspan id="SvgjsTspan1019" style="text-decoration:;">Proxy data</tspan></tspan></text></g></g><g id="SvgjsG1020"><path id="SvgjsPath1021" d="M124 105.5L177 105.5L177 105.5L230 105.5" stroke="#323232" stroke-width="2" fill="none" marker-end="url(#SvgjsMarker1022)"></path><rect id="SvgjsRect1024" width="56" height="16" x="149" y="97.5" fill="#ffffff"></rect><text id="SvgjsText1025" font-family="微软雅黑" text-anchor="middle" font-size="13px" width="56px" fill="#323232" font-weight="400" align="top" anchor="middle" family="微软雅黑" size="13px" weight="400" font-style="" opacity="1" y="95.55" transform="rotate(0)"><tspan id="SvgjsTspan1026" dy="16" x="177"><tspan id="SvgjsTspan1027" style="text-decoration:;">reactive()</tspan></tspan></text></g><g id="SvgjsG1028" transform="translate(406,46.5)"><path id="SvgjsPath1029" d="M 0 4Q 0 0 4 0L 148 0Q 152 0 152 4L 152 33Q 152 37 148 37L 4 37Q 0 37 0 33Z" stroke="rgba(50,50,50,1)" stroke-width="2" fill-opacity="1" fill="#ffffff"></path><g id="SvgjsG1030"><text id="SvgjsText1031" font-family="微软雅黑" text-anchor="middle" font-size="13px" width="132px" fill="#323232" font-weight="400" align="middle" anchor="middle" family="微软雅黑" size="13px" weight="400" font-style="" opacity="1" y="8.55" transform="rotate(0)"><tspan id="SvgjsTspan1032" dy="16" x="76"><tspan id="SvgjsTspan1033" style="text-decoration:;">setter</tspan></tspan></text></g></g><g id="SvgjsG1034" transform="translate(406,124.5)"><path id="SvgjsPath1035" d="M 0 4Q 0 0 4 0L 148 0Q 152 0 152 4L 152 33Q 152 37 148 37L 4 37Q 0 37 0 33Z" stroke="rgba(50,50,50,1)" stroke-width="2" fill-opacity="1" fill="#ffffff"></path><g id="SvgjsG1036"><text id="SvgjsText1037" font-family="微软雅黑" text-anchor="middle" font-size="13px" width="132px" fill="#323232" font-weight="400" align="middle" anchor="middle" family="微软雅黑" size="13px" weight="400" font-style="" opacity="1" y="8.55" transform="rotate(0)"><tspan id="SvgjsTspan1038" dy="16" x="76"><tspan id="SvgjsTspan1039" style="text-decoration:;">getter</tspan></tspan></text></g></g><g id="SvgjsG1040"><path id="SvgjsPath1041" d="M364 105.5L385 105.5L385 65L406 65" stroke="#323232" stroke-width="2" fill="none" marker-end="url(#SvgjsMarker1042)"></path></g><g id="SvgjsG1044"><path id="SvgjsPath1045" d="M364 105.5L385 105.5L385 143L406 143" stroke="#323232" stroke-width="2" fill="none" marker-end="url(#SvgjsMarker1046)"></path></g><g id="SvgjsG1048" transform="translate(615,103)"><path id="SvgjsPath1049" d="M 0 40L 60 0L 120 40L 60 80Z" stroke="rgba(50,50,50,1)" stroke-width="2" fill-opacity="1" fill="#ffffff"></path><g id="SvgjsG1050"><text id="SvgjsText1051" font-family="微软雅黑" text-anchor="middle" font-size="13px" width="100px" fill="#323232" font-weight="400" align="middle" anchor="middle" family="微软雅黑" size="13px" weight="400" font-style="" opacity="1" y="30.45" transform="rotate(0)"><tspan id="SvgjsTspan1052" dy="16" x="60"><tspan id="SvgjsTspan1053" style="text-decoration:;">track</tspan></tspan></text></g></g><g id="SvgjsG1054"><path id="SvgjsPath1055" d="M558 143L586.5 143L586.5 143L615 143" stroke="#323232" stroke-width="2" fill="none" marker-end="url(#SvgjsMarker1056)"></path></g><g id="SvgjsG1058" transform="translate(578.5,250.5)"><path id="SvgjsPath1059" d="M 0 0L 193 0L 193 90L 0 90Z" stroke="rgba(50,50,50,1)" stroke-width="2" fill-opacity="1" fill="#ffffff"></path><g id="SvgjsG1060"><text id="SvgjsText1061" font-family="微软雅黑" text-anchor="middle" font-size="13px" width="173px" fill="#323232" font-weight="400" align="middle" anchor="middle" family="微软雅黑" size="13px" weight="400" font-style="" opacity="1" y="35.05" transform="rotate(0)"></text></g></g><g id="SvgjsG1062" transform="translate(662,302.5)"><path id="SvgjsPath1063" d="M 0 0L 80 0L 80 28L 0 28Z" stroke="rgba(50,50,50,1)" stroke-width="2" fill-opacity="1" fill="#ffffff"></path><g id="SvgjsG1064"><text id="SvgjsText1065" font-family="微软雅黑" text-anchor="middle" font-size="13px" width="60px" fill="#323232" font-weight="400" align="middle" anchor="middle" family="微软雅黑" size="13px" weight="400" font-style="" opacity="1" y="4.05" transform="rotate(0)"><tspan id="SvgjsTspan1066" dy="16" x="40"><tspan id="SvgjsTspan1067" style="text-decoration:;">target</tspan></tspan></text></g></g><g id="SvgjsG1068" transform="translate(781.5,340.5)"><path id="SvgjsPath1069" d="M 0 0L 193 0L 193 90L 0 90Z" stroke="rgba(50,50,50,1)" stroke-width="2" fill-opacity="1" fill="#ffffff"></path><g id="SvgjsG1070"><text id="SvgjsText1071" font-family="微软雅黑" text-anchor="middle" font-size="13px" width="173px" fill="#323232" font-weight="400" align="middle" anchor="middle" family="微软雅黑" size="13px" weight="400" font-style="" opacity="1" y="35.05" transform="rotate(0)"></text></g></g><g id="SvgjsG1072"><path id="SvgjsPath1073" d="M702 330.5L702 385.5L781.5 385.5" stroke="#323232" stroke-width="2" fill="none" marker-end="url(#SvgjsMarker1074)"></path></g><g id="SvgjsG1076" transform="translate(883,392.5)"><path id="SvgjsPath1077" d="M 0 0L 80 0L 80 28L 0 28Z" stroke="rgba(50,50,50,1)" stroke-width="2" fill-opacity="1" fill="#ffffff"></path><g id="SvgjsG1078"><text id="SvgjsText1079" font-family="微软雅黑" text-anchor="middle" font-size="13px" width="60px" fill="#323232" font-weight="400" align="middle" anchor="middle" family="微软雅黑" size="13px" weight="400" font-style="" opacity="1" y="4.05" transform="rotate(0)"><tspan id="SvgjsTspan1080" dy="16" x="40"><tspan id="SvgjsTspan1081" style="text-decoration:;">key</tspan></tspan></text></g></g><g id="SvgjsG1082"><path id="SvgjsPath1083" d="M675 183L675 216.75L675 216.75L675 250.5" stroke="#323232" stroke-width="2" fill="none" marker-end="url(#SvgjsMarker1084)"></path></g><g id="SvgjsG1086" transform="translate(600,258.5)"><path id="SvgjsPath1087" d="M 0 0L 150 0L 150 37L 0 37Z" stroke="none" fill="none"></path><g id="SvgjsG1088"><text id="SvgjsText1089" font-family="微软雅黑" text-anchor="middle" font-size="13px" width="150px" fill="#323232" font-weight="400" align="middle" anchor="middle" family="微软雅黑" size="13px" weight="400" font-style="" opacity="1" y="8.55" transform="rotate(0)"><tspan id="SvgjsTspan1090" dy="16" x="75"><tspan id="SvgjsTspan1091" style="text-decoration:;">targetMap(WeakMap)</tspan></tspan></text></g></g><g id="SvgjsG1092" transform="translate(803,340.5)"><path id="SvgjsPath1093" d="M 0 0L 150 0L 150 37L 0 37Z" stroke="none" fill="none"></path><g id="SvgjsG1094"><text id="SvgjsText1095" font-family="微软雅黑" text-anchor="middle" font-size="13px" width="150px" fill="#323232" font-weight="400" align="middle" anchor="middle" family="微软雅黑" size="13px" weight="400" font-style="" opacity="1" y="8.55" transform="rotate(0)"><tspan id="SvgjsTspan1096" dy="16" x="75"><tspan id="SvgjsTspan1097" style="text-decoration:;">depsMap(Map)</tspan></tspan></text></g></g><g id="SvgjsG1098" transform="translate(985.5,433.5)"><path id="SvgjsPath1099" d="M 0 0L 193 0L 193 90L 0 90Z" stroke="rgba(50,50,50,1)" stroke-width="2" fill-opacity="1" fill="#ffffff"></path><g id="SvgjsG1100"><text id="SvgjsText1101" font-family="微软雅黑" text-anchor="middle" font-size="13px" width="173px" fill="#323232" font-weight="400" align="middle" anchor="middle" family="微软雅黑" size="13px" weight="400" font-style="" opacity="1" y="35.05" transform="rotate(0)"></text></g></g><g id="SvgjsG1102"><path id="SvgjsPath1103" d="M923 420.5L923 478.5L985.5 478.5" stroke="#323232" stroke-width="2" fill="none" marker-end="url(#SvgjsMarker1104)"></path></g><g id="SvgjsG1106" transform="translate(1007,437.5)"><path id="SvgjsPath1107" d="M 0 0L 150 0L 150 37L 0 37Z" stroke="none" fill="none"></path><g id="SvgjsG1108"><text id="SvgjsText1109" font-family="微软雅黑" text-anchor="middle" font-size="13px" width="150px" fill="#323232" font-weight="400" align="middle" anchor="middle" family="微软雅黑" size="13px" weight="400" font-style="" opacity="1" y="8.55" transform="rotate(0)"><tspan id="SvgjsTspan1110" dy="16" x="75"><tspan id="SvgjsTspan1111" style="text-decoration:;">dep(Set)</tspan></tspan></text></g></g><g id="SvgjsG1112" transform="translate(985.5,531.5)"><path id="SvgjsPath1113" d="M 0 0L 226 0L 242 16L 242 55L 0 55L 0 0Z" stroke="none" fill-opacity="1" fill="#ffffaa"></path><path id="SvgjsPath1114" d="M 226 0L 226 16L 242 16Z" stroke="none" fill-opacity="1" fill="#cdcdcd"></path><path id="SvgjsPath1115" d="M 0 0L 226 0L 242 16L 242 55L 0 55L 0 0Z" stroke="none" fill="none"></path><g id="SvgjsG1116"><text id="SvgjsText1117" font-family="微软雅黑" text-anchor="middle" font-size="13px" width="222px" fill="#323232" font-weight="400" align="middle" anchor="middle" family="微软雅黑" size="13px" weight="400" font-style="" opacity="1" y="17.55" transform="rotate(0)"><tspan id="SvgjsTspan1118" dy="16" x="121"><tspan id="SvgjsTspan1119" style="text-decoration:;">track: dep.add(activeEffect)</tspan></tspan></text></g></g><g id="SvgjsG1120" transform="translate(985.5,597.5)"><path id="SvgjsPath1121" d="M 0 0L 226 0L 242 16L 242 55L 0 55L 0 0Z" stroke="none" fill-opacity="1" fill="#ffffaa"></path><path id="SvgjsPath1122" d="M 226 0L 226 16L 242 16Z" stroke="none" fill-opacity="1" fill="#cdcdcd"></path><path id="SvgjsPath1123" d="M 0 0L 226 0L 242 16L 242 55L 0 55L 0 0Z" stroke="none" fill="none"></path><g id="SvgjsG1124"><text id="SvgjsText1125" font-family="微软雅黑" text-anchor="middle" font-size="13px" width="222px" fill="#323232" font-weight="400" align="middle" anchor="middle" family="微软雅黑" size="13px" weight="400" font-style="" opacity="1" y="9.55" transform="rotate(0)"><tspan id="SvgjsTspan1126" dy="16" x="121"><tspan id="SvgjsTspan1127" style="text-decoration:;">trigger: dep.forEach(effect =&gt; { </tspan></tspan><tspan id="SvgjsTspan1128" dy="16" x="121"><tspan id="SvgjsTspan1129" style="text-decoration:;">effect() })</tspan></tspan></text></g></g><g id="SvgjsG1130" transform="translate(1372,25)"><path id="SvgjsPath1131" d="M 0 40L 60 0L 120 40L 60 80Z" stroke="rgba(50,50,50,1)" stroke-width="2" fill-opacity="1" fill="#ffffff"></path><g id="SvgjsG1132"><text id="SvgjsText1133" font-family="微软雅黑" text-anchor="middle" font-size="13px" width="100px" fill="#323232" font-weight="400" align="middle" anchor="middle" family="微软雅黑" size="13px" weight="400" font-style="" opacity="1" y="30.45" transform="rotate(0)"><tspan id="SvgjsTspan1134" dy="16" x="60"><tspan id="SvgjsTspan1135" style="text-decoration:;">trigger</tspan></tspan></text></g></g><g id="SvgjsG1136"><path id="SvgjsPath1137" d="M558 65L965 65L965 65L1372 65" stroke="#323232" stroke-width="2" fill="none" marker-end="url(#SvgjsMarker1138)"></path></g><g id="SvgjsG1140"><path id="SvgjsPath1141" d="M1432 105L1432 210.75L675 210.75L675 250.5" stroke="#323232" stroke-width="2" fill="none" marker-end="url(#SvgjsMarker1142)"></path></g><g id="SvgjsG1144" transform="translate(1369,324)"><path id="SvgjsPath1145" d="M 0 40L 60 0L 120 40L 60 80Z" stroke="rgba(50,50,50,1)" stroke-width="2" fill-opacity="1" fill="#ffffff"></path><g id="SvgjsG1146"><text id="SvgjsText1147" font-family="微软雅黑" text-anchor="middle" font-size="13px" width="100px" fill="#323232" font-weight="400" align="middle" anchor="middle" family="微软雅黑" size="13px" weight="400" font-style="" opacity="1" y="30.45" transform="rotate(0)"><tspan id="SvgjsTspan1148" dy="16" x="60"><tspan id="SvgjsTspan1149" style="text-decoration:;">effect</tspan></tspan></text></g></g><g id="SvgjsG1150"><path id="SvgjsPath1151" d="M1227.5 559L1429 559L1429 404" stroke="#323232" stroke-width="2" fill="none" marker-end="url(#SvgjsMarker1152)"></path></g><g id="SvgjsG1154"><path id="SvgjsPath1155" d="M1227.5 625L1429 625L1429 404" stroke="#323232" stroke-width="2" fill="none" marker-end="url(#SvgjsMarker1156)"></path></g><g id="SvgjsG1158" transform="translate(25,425.5)"><path id="SvgjsPath1159" d="M 0 0L 99 0L 99 44L 0 44Z" stroke="rgba(50,50,50,1)" stroke-width="2" fill-opacity="1" fill="#ffffff"></path><g id="SvgjsG1160"><text id="SvgjsText1161" font-family="微软雅黑" text-anchor="middle" font-size="13px" width="79px" fill="#323232" font-weight="400" align="middle" anchor="middle" family="微软雅黑" size="13px" weight="400" font-style="" opacity="1" y="12.05" transform="rotate(0)"><tspan id="SvgjsTspan1162" dy="16" x="49.5"><tspan id="SvgjsTspan1163" style="text-decoration:;">fn</tspan></tspan></text></g></g><g id="SvgjsG1164" transform="translate(230,425.5)"><path id="SvgjsPath1165" d="M 0 0L 134 0L 134 44L 0 44Z" stroke="rgba(50,50,50,1)" stroke-width="2" fill-opacity="1" fill="#ffffff"></path><g id="SvgjsG1166"><text id="SvgjsText1167" font-family="微软雅黑" text-anchor="middle" font-size="13px" width="114px" fill="#323232" font-weight="400" align="middle" anchor="middle" family="微软雅黑" size="13px" weight="400" font-style="" opacity="1" y="12.05" transform="rotate(0)"><tspan id="SvgjsTspan1168" dy="16" x="67"><tspan id="SvgjsTspan1169" style="text-decoration:;">effect</tspan></tspan></text></g></g><g id="SvgjsG1170"><path id="SvgjsPath1171" d="M124 447.5L177 447.5L177 447.5L230 447.5" stroke="#323232" stroke-width="2" fill="none" marker-end="url(#SvgjsMarker1172)"></path><rect id="SvgjsRect1174" width="44" height="16" x="155" y="439.5" fill="#ffffff"></rect><text id="SvgjsText1175" font-family="微软雅黑" text-anchor="middle" font-size="13px" width="44px" fill="#323232" font-weight="400" align="top" anchor="middle" family="微软雅黑" size="13px" weight="400" font-style="" opacity="1" y="437.55" transform="rotate(0)"><tspan id="SvgjsTspan1176" dy="16" x="177"><tspan id="SvgjsTspan1177" style="text-decoration:;">effect()</tspan></tspan></text></g><g id="SvgjsG1178" transform="translate(422,407.5)"><path id="SvgjsPath1179" d="M 0 40L 60 0L 120 40L 60 80Z" stroke="rgba(50,50,50,1)" stroke-width="2" fill-opacity="1" fill="#ffffff"></path><g id="SvgjsG1180"><text id="SvgjsText1181" font-family="微软雅黑" text-anchor="middle" font-size="13px" width="100px" fill="#323232" font-weight="400" align="middle" anchor="middle" family="微软雅黑" size="13px" weight="400" font-style="" opacity="1" y="30.45" transform="rotate(0)"><tspan id="SvgjsTspan1182" dy="16" x="60"><tspan id="SvgjsTspan1183" style="text-decoration:;">run</tspan></tspan></text></g></g><g id="SvgjsG1184"><path id="SvgjsPath1185" d="M364 447.5L393 447.5L393 447.5L422 447.5" stroke="#323232" stroke-width="2" fill="none" marker-end="url(#SvgjsMarker1186)"></path></g><g id="SvgjsG1188"><path id="SvgjsPath1189" d="M482 407.5L482 284.5L482 284.5L482 161.5" stroke="#323232" stroke-width="2" fill="none" marker-end="url(#SvgjsMarker1190)"></path><rect id="SvgjsRect1192" width="66" height="16" x="449" y="276.5" fill="#ffffff"></rect><text id="SvgjsText1193" font-family="微软雅黑" text-anchor="middle" font-size="13px" width="66px" fill="#323232" font-weight="400" align="top" anchor="middle" family="微软雅黑" size="13px" weight="400" font-style="" opacity="1" y="274.55" transform="rotate(0)"><tspan id="SvgjsTspan1194" dy="16" x="482"><tspan id="SvgjsTspan1195" style="text-decoration:;">触发 getter</tspan></tspan></text></g><g id="SvgjsG1196" transform="translate(1566,329)"><path id="SvgjsPath1197" d="M 0 0L 100 0L 100 70L 0 70Z" stroke="rgba(50,50,50,1)" stroke-width="2" fill-opacity="1" fill="#ffffff"></path><g id="SvgjsG1198"><text id="SvgjsText1199" font-family="微软雅黑" text-anchor="middle" font-size="13px" width="80px" fill="#323232" font-weight="400" align="middle" anchor="middle" family="微软雅黑" size="13px" weight="400" font-style="" opacity="1" y="25.05" transform="rotate(0)"><tspan id="SvgjsTspan1200" dy="16" x="50"><tspan id="SvgjsTspan1201" style="text-decoration:;">响应更新</tspan></tspan></text></g></g><g id="SvgjsG1202"><path id="SvgjsPath1203" d="M1489 364L1527.5 364L1527.5 364L1566 364" stroke="#323232" stroke-width="2" fill="none" marker-end="url(#SvgjsMarker1204)"></path></g></svg>